<svg width="300" height="72" viewBox="0 0 300 72" fill="none" xmlns="http://www.w3.org/2000/svg">
<g clip-path="url(#clip0_90_4889)">
<mask id="mask0_90_4889" style="mask-type:luminance" maskUnits="userSpaceOnUse" x="32" y="0" width="14" height="23">
<path d="M32.0077 0.00585938H45.1905V22.2029H32.0077V0.00585938Z" fill="white"/>
</mask>
<g mask="url(#mask0_90_4889)">
<mask id="mask1_90_4889" style="mask-type:luminance" maskUnits="userSpaceOnUse" x="32" y="0" width="14" height="23">
<path d="M33.024 19.6707L33.1258 19.6655C34.6685 19.5822 36.0637 19.6171 37.3944 19.7731C40.1983 20.0982 42.8733 20.9288 45.1755 22.1945V0.0795898H32.0447V19.7596C32.2192 19.7435 32.388 19.7273 32.5542 19.7138L32.8657 19.6842" fill="white"/>
</mask>
<g mask="url(#mask1_90_4889)">
<path d="M-1.26825 -1.26465H50.8962V58.2171H-1.26825V-1.26465Z" fill="#26374D"/>
</g>
</g>
<mask id="mask2_90_4889" style="mask-type:luminance" maskUnits="userSpaceOnUse" x="32" y="31" width="14" height="26">
<path d="M32.0077 31.6802H45.1905V56.9282H32.0077V31.6802Z" fill="white"/>
</mask>
<g mask="url(#mask2_90_4889)">
<mask id="mask3_90_4889" style="mask-type:luminance" maskUnits="userSpaceOnUse" x="32" y="31" width="14" height="26">
<path d="M43.1604 31.771C41.5238 31.849 39.8763 32.0962 37.9687 32.5533C37.223 32.7442 36.4287 32.9752 35.5381 33.2628L35.3502 33.3273C34.5828 33.5988 33.8584 33.8542 33.1528 34.1523L32.0417 34.6229V56.8724H37.0755C41.5481 56.8724 45.1729 53.2383 45.1729 48.7578V31.744C44.5103 31.7253 43.8421 31.7335 43.1578 31.771" fill="white"/>
</mask>
<g mask="url(#mask3_90_4889)">
<path d="M-1.26825 -1.26465H50.8962V58.2171H-1.26825V-1.26465Z" fill="#26374D"/>
</g>
</g>
<mask id="mask4_90_4889" style="mask-type:luminance" maskUnits="userSpaceOnUse" x="4" y="0" width="14" height="28">
<path d="M4.12073 0.00585938H17.3455V27.8402H4.12073V0.00585938Z" fill="white"/>
</mask>
<g mask="url(#mask4_90_4889)">
<mask id="mask5_90_4889" style="mask-type:luminance" maskUnits="userSpaceOnUse" x="4" y="0" width="14" height="28">
<path d="M6.46673 27.7692C8.10897 27.6912 9.75906 27.4437 11.6585 26.9896L14.0921 26.2775C14.9508 25.979 15.7208 25.7048 16.48 25.385L17.2931 25.0437V0.0795898H12.2544C7.78179 0.0795898 4.15405 3.71334 4.15405 8.19384V27.788C4.91883 27.8176 5.69671 27.8093 6.46411 27.7718" fill="white"/>
</mask>
<g mask="url(#mask5_90_4889)">
<path d="M-1.26831 -1.26465H50.8961V58.2171H-1.26831V-1.26465Z" fill="#26374D"/>
</g>
</g>
<mask id="mask6_90_4889" style="mask-type:luminance" maskUnits="userSpaceOnUse" x="4" y="37" width="14" height="20">
<path d="M4.12073 37.1519H17.3455V56.9279H4.12073V37.1519Z" fill="white"/>
</mask>
<g mask="url(#mask6_90_4889)">
<mask id="mask7_90_4889" style="mask-type:luminance" maskUnits="userSpaceOnUse" x="4" y="37" width="14" height="20">
<path d="M14.9482 39.8959C13.9902 39.8959 13.0914 39.8449 12.2275 39.7455C9.30574 39.4069 6.52064 38.5117 4.15405 37.1572V56.8721H17.2904V39.783L16.4935 39.8531C15.9597 39.8824 15.4446 39.8959 14.9482 39.8959Z" fill="white"/>
</mask>
<g mask="url(#mask7_90_4889)">
<path d="M-1.26831 -1.26514H50.8961V58.2166H-1.26831V-1.26514Z" fill="#26374D"/>
</g>
</g>
<mask id="mask8_90_4889" style="mask-type:luminance" maskUnits="userSpaceOnUse" x="0" y="21" width="50" height="17">
<path d="M0 21.9839H49.6406V37.5359H0V21.9839Z" fill="white"/>
</mask>
<g mask="url(#mask8_90_4889)">
<mask id="mask9_90_4889" style="mask-type:luminance" maskUnits="userSpaceOnUse" x="0" y="22" width="50" height="16">
<path d="M47.3785 26.7905C46.7077 26.1346 45.9669 25.538 45.1755 25.0111L44.3894 24.5217C42.1999 23.2426 39.6858 22.4686 37.1182 22.1727C35.8331 22.025 34.5398 22.0088 33.252 22.076L32.0448 22.1862C31.806 22.2132 31.5724 22.2398 31.3418 22.283L30.3947 22.4333C30.0806 22.4926 29.7748 22.5653 29.4637 22.6325C26.9762 23.186 24.6152 24.0946 22.4418 25.2477C20.7704 26.132 19.1016 26.9247 17.4193 27.6155L17.3388 27.6503C16.4935 27.9972 15.6835 28.2848 14.8651 28.5725L12.241 29.3386C10.4595 29.7657 8.59718 30.0908 6.59033 30.185L4.15936 30.2037C3.93139 30.1985 3.7008 30.1876 3.46721 30.1745C2.38873 30.107 1.27244 29.9941 0.0760498 29.7683C0.582908 30.8975 1.37726 31.8676 2.25734 32.7383C2.84206 33.3057 3.47806 33.8296 4.15674 34.3028L5.24608 35.0015C7.43298 36.2757 9.94406 37.0497 12.5094 37.3478C13.7945 37.4986 15.0875 37.5095 16.373 37.445L17.3336 37.3587C17.6555 37.3317 17.9718 37.2942 18.2859 37.2406L19.2382 37.0928C19.5497 37.0336 19.8581 36.9608 20.1696 36.8963C22.6541 36.3428 25.0177 35.4342 27.1911 34.2893C28.809 33.4426 30.4186 32.6765 32.0448 32.0075L32.1627 31.9565C33.0615 31.58 33.912 31.2845 34.7734 30.9807L37.3919 30.2172C39.1737 29.7901 41.0357 29.4646 43.0399 29.3678L45.1782 29.3356C45.5027 29.3412 45.8303 29.3517 46.1631 29.3708C47.2468 29.438 48.3604 29.5482 49.5568 29.774C49.0526 28.637 48.2582 27.6695 47.3812 26.7983" fill="white"/>
</mask>
<g mask="url(#mask9_90_4889)">
<path d="M-1.26825 -1.26465H50.8962V58.2171H-1.26825V-1.26465Z" fill="#26374D"/>
</g>
</g>
<mask id="mask10_90_4889" style="mask-type:luminance" maskUnits="userSpaceOnUse" x="52" y="11" width="41" height="46">
<path d="M52.34 11.7969H92.1898V56.8734H52.34V11.7969Z" fill="white"/>
</mask>
<g mask="url(#mask10_90_4889)">
<mask id="mask11_90_4889" style="mask-type:luminance" maskUnits="userSpaceOnUse" x="52" y="11" width="41" height="46">
<path d="M63.8746 30.0226H80.4452C80.2277 27.0928 79.4712 24.9237 78.1699 23.5126C76.7613 21.9943 74.7597 21.2334 72.1599 21.2334C69.7772 21.2334 67.8265 21.9943 66.3108 23.5126C64.7921 25.034 63.9817 27.203 63.8746 30.0226ZM83.3669 42.7145H91.4886C90.2945 47.27 88.0219 50.7455 84.6655 53.1294C81.3062 55.6265 77.0832 56.8708 71.9933 56.8708C65.8197 56.8708 61.0008 54.866 57.537 50.8501C54.0706 46.9475 52.34 41.3596 52.34 34.0918C52.34 27.1494 54.0167 21.7227 57.376 17.8175C60.8398 13.8046 65.6613 11.7969 71.8323 11.7969C78.3309 11.7969 83.3669 13.7506 86.9408 17.6562C90.4045 21.6718 92.1404 27.257 92.1404 34.4172V36.2071C92.1404 36.7501 92.0842 37.1292 91.9768 37.3468H63.8746C63.9817 40.712 64.7921 43.2061 66.3108 44.8325C67.7165 46.5687 69.8281 47.4369 72.6454 47.4369C74.4861 47.4369 76.0583 47.0578 77.3569 46.2972C77.6814 46.1896 77.9794 45.9987 78.2504 45.7272L79.1436 44.8325C79.251 44.507 79.6561 44.0742 80.3617 43.5316C81.0673 42.9886 82.0683 42.7171 83.3669 42.7171" fill="white"/>
</mask>
<g mask="url(#mask11_90_4889)">
<path d="M52.34 11.7969H92.1392V56.8734H52.34V11.7969Z" fill="#26374D"/>
</g>
</g>
<mask id="mask12_90_4889" style="mask-type:luminance" maskUnits="userSpaceOnUse" x="97" y="12" width="38" height="45">
<path d="M97.14 12.7734H134.828V56.9282H97.14V12.7734Z" fill="white"/>
</mask>
<g mask="url(#mask12_90_4889)">
<mask id="mask13_90_4889" style="mask-type:luminance" maskUnits="userSpaceOnUse" x="97" y="12" width="38" height="45">
<path d="M134.826 12.7734V38.1594C134.826 45.8627 132.822 50.9076 128.816 53.2944C124.811 55.6809 120.421 56.8746 115.659 56.8746C111.001 56.6567 106.748 55.3558 102.906 52.9689C99.0638 50.5824 97.14 45.6448 97.14 38.1594V12.7734H108.511V40.4387C108.511 43.0431 109.268 44.9432 110.786 46.1342C112.302 47.3301 114.036 47.9241 115.983 47.9241C117.931 47.9241 119.691 47.3301 121.264 46.1342C122.833 44.9406 123.619 43.0431 123.619 40.4387V18.3047C123.619 16.7859 124.132 15.4851 125.162 14.3994C126.19 13.3191 127.518 12.7734 129.141 12.7734H134.826Z" fill="white"/>
</mask>
<g mask="url(#mask13_90_4889)">
<path d="M97.14 12.7734H134.828V56.8734H97.14V12.7734Z" fill="#26374D"/>
</g>
</g>
<mask id="mask14_90_4889" style="mask-type:luminance" maskUnits="userSpaceOnUse" x="140" y="11" width="42" height="61">
<path d="M140.472 11.7959H181.247V71.9939H140.472V11.7959Z" fill="white"/>
</mask>
<g mask="url(#mask14_90_4889)">
<mask id="mask15_90_4889" style="mask-type:luminance" maskUnits="userSpaceOnUse" x="140" y="11" width="42" height="62">
<path d="M176.372 17.8165C174.748 15.865 172.556 14.3736 169.793 13.3413C167.029 12.3145 164.295 11.7959 161.588 11.7959C156.391 11.7959 151.57 13.18 147.132 15.9456C142.691 18.7116 140.472 23.8964 140.472 31.4894V72.0048H145.994C147.51 72.0048 148.808 71.4648 149.893 70.3788C150.977 69.2931 151.519 67.9919 151.519 66.4735V34.5801C151.519 30.1345 152.275 26.8769 153.791 24.8181C155.414 22.5389 157.69 21.3993 160.614 21.3993C163.646 21.3993 165.975 22.5389 167.598 24.8181C169.221 27.0948 170.034 30.3498 170.034 34.5801C170.034 38.4858 169.221 41.5765 167.598 43.8558C165.975 46.1324 163.753 47.272 160.939 47.272C159.954 47.272 159.042 47.1483 158.207 46.909V56.0151C159.901 56.5878 161.784 56.8754 163.863 56.8754C168.95 56.8754 173.12 54.8167 176.369 50.6935C179.618 46.4628 181.244 40.9289 181.244 34.0911C181.244 27.4791 179.618 22.0499 176.369 17.8191" fill="white"/>
</mask>
<g mask="url(#mask15_90_4889)">
<path d="M140.472 11.7959H181.247V72.0055H140.472V11.7959Z" fill="#536D82"/>
</g>
</g>
<mask id="mask16_90_4889" style="mask-type:luminance" maskUnits="userSpaceOnUse" x="186" y="0" width="13" height="57">
<path d="M186.896 0.0800781H198.275V56.0597H186.896V0.0800781Z" fill="white"/>
</mask>
<g mask="url(#mask16_90_4889)">
<mask id="mask17_90_4889" style="mask-type:luminance" maskUnits="userSpaceOnUse" x="186" y="0" width="13" height="57">
<path d="M186.896 0.0800781H192.745C194.261 0.0800781 195.559 0.596078 196.643 1.62545C197.725 2.65783 198.269 3.9317 198.269 5.45045V56.0586H186.896V0.0800781Z" fill="white"/>
</mask>
<g mask="url(#mask17_90_4889)">
<path d="M186.896 0.0800781H198.268V56.0597H186.896V0.0800781Z" fill="#536D82"/>
</g>
</g>
<mask id="mask18_90_4889" style="mask-type:luminance" maskUnits="userSpaceOnUse" x="204" y="12" width="39" height="45">
<path d="M204.395 12.7734H242.082V56.9282H204.395V12.7734Z" fill="white"/>
</mask>
<g mask="url(#mask18_90_4889)">
<mask id="mask19_90_4889" style="mask-type:luminance" maskUnits="userSpaceOnUse" x="204" y="12" width="39" height="45">
<path d="M242.081 12.7734V38.1594C242.081 45.8627 240.077 50.9076 236.071 53.2944C232.063 55.6809 227.676 56.8746 222.913 56.8746C218.256 56.6567 214.006 55.3558 210.161 52.9689C206.316 50.5824 204.395 45.6448 204.395 38.1594V12.7734H215.766V40.4387C215.766 43.0431 216.522 44.9432 218.041 46.1342C219.557 47.3301 221.29 47.9241 223.238 47.9241C225.186 47.9241 226.946 47.3301 228.518 46.1342C230.088 44.9406 230.874 43.0431 230.874 40.4387V18.3047C230.874 16.7859 231.387 15.4851 232.417 14.3994C233.444 13.3191 234.773 12.7734 236.396 12.7734H242.081Z" fill="white"/>
</mask>
<g mask="url(#mask19_90_4889)">
<path d="M204.395 12.7734H242.082V56.8734H204.395V12.7734Z" fill="#536D82"/>
</g>
</g>
<mask id="mask20_90_4889" style="mask-type:luminance" maskUnits="userSpaceOnUse" x="247" y="11" width="34" height="46">
<path d="M247.345 11.7246H280.498V56.9279H247.345V11.7246Z" fill="white"/>
</mask>
<g mask="url(#mask20_90_4889)">
<mask id="mask21_90_4889" style="mask-type:luminance" maskUnits="userSpaceOnUse" x="247" y="11" width="34" height="46">
<path d="M277.809 34.4168C275.938 32.5729 272.622 30.9469 267.857 29.5358L266.666 29.3719C266.245 29.2643 265.754 29.103 265.193 28.8851C260.334 27.6919 257.906 26.2271 257.906 24.4909C257.906 23.187 258.327 22.2116 259.167 21.561L260.154 21.0559C261.002 20.7413 262.073 20.5853 263.371 20.5853H278.128C277.398 18.6716 276.312 16.989 274.865 15.5404C273.84 14.6588 272.695 13.9331 271.426 13.3631C269.29 12.4039 266.811 11.8849 263.98 11.8069L263.231 11.7964C259.193 11.7964 255.834 12.8096 253.159 14.8335L252.301 15.5404C249.588 18.2524 248.236 21.6713 248.236 25.7918C248.236 29.0464 249.167 31.6511 251.04 33.6023C252.719 35.5564 256.036 37.239 260.988 38.6471C261.831 38.9726 263.092 39.2978 264.774 39.6229C268.697 40.6013 270.661 42.066 270.661 44.0175C270.661 44.5174 270.578 44.9771 270.411 45.3964C270.149 46.071 269.668 46.6436 268.979 47.1086C267.763 47.8691 266.315 48.2483 264.632 48.2483C262.298 48.2483 260.428 47.7079 259.027 46.6219C258.536 46.2161 258.131 45.735 257.812 45.1759C256.57 43.0043 254.19 41.7409 251.692 41.7409H247.393V42.2273C247.393 47.0036 248.749 50.6374 251.458 53.1319C254.074 55.6286 258.045 56.8733 263.371 56.8733C268.979 56.8733 273.183 55.6826 275.987 53.2931C276.593 52.7663 277.138 52.1936 277.618 51.5756C279.521 49.1513 280.47 46.0361 280.47 42.2273C280.47 38.9726 279.582 36.3709 277.809 34.4168Z" fill="white"/>
</mask>
<g mask="url(#mask21_90_4889)">
<path d="M246.052 0.158203H301.233V58.2161H246.052V0.158203Z" fill="#536D82"/>
</g>
</g>
<mask id="mask22_90_4889" style="mask-type:luminance" maskUnits="userSpaceOnUse" x="263" y="11" width="37" height="10">
<path d="M263.148 11.8071H299.893V20.5855H263.148V11.8071Z" fill="white"/>
</mask>
<g mask="url(#mask22_90_4889)">
<path d="M246.052 0.158691H301.233V58.2166H246.052V0.158691Z" fill="#536D82"/>
</g>
<mask id="mask23_90_4889" style="mask-type:luminance" maskUnits="userSpaceOnUse" x="279" y="1" width="10" height="30">
<path d="M279.853 1.50244H288.616V30.8878H279.853V1.50244Z" fill="white"/>
</mask>
<g mask="url(#mask23_90_4889)">
<path d="M246.052 0.158203H301.233V58.2161H246.052V0.158203Z" fill="#536D82"/>
</g>
</g>
<defs>
<clipPath id="clip0_90_4889">
<rect width="300" height="72" fill="white"/>
</clipPath>
</defs>
</svg>
